<svg viewBox="0 0 100.19 47.6542" xmlns="http://www.w3.org/2000/svg" xmlns:xlink="http://www.w3.org/1999/xlink" width="100.190002" height="47.654236" fill="none" customFrame="#000000">
	<g id="Group">
		<path id="Path" d="M0 28.61L3 28.61L3 43.32L0 43.32L0 28.61Z" fill="rgb(105.128,104.434,113.187)" fill-rule="nonzero" />
		<path id="Shape" d="M4.73999 38.28C4.73594 36.1193 6.03442 34.1691 8.02952 33.3394C10.0246 32.5097 12.3231 32.9641 13.8524 34.4905C15.3817 36.017 15.8404 38.3146 15.0145 40.3112C14.1885 42.3079 12.2407 43.61 10.08 43.61C8.66057 43.6262 7.29441 43.0702 6.28972 42.0674C5.28504 41.0646 4.72645 39.6995 4.73999 38.28ZM10.041 36.0204C11.3142 35.9986 12.3671 37.0071 12.4 38.28C12.4338 38.9105 12.2023 39.5263 11.7616 39.9784C11.3208 40.4305 10.7111 40.6777 10.08 40.66C8.80659 40.6596 7.77154 39.6329 7.76084 38.3595C7.75015 37.0862 8.76781 36.0422 10.041 36.0204Z" fill="rgb(105.128,104.434,113.187)" fill-rule="evenodd" />
		<path id="Shape" d="M27.48 33.24L27.48 42.82C27.48 46.21 24.83 47.64 22.15 47.64C20.2287 47.7829 18.3884 46.8415 17.38 45.2L19.96 43.71C20.3789 44.5544 21.2706 45.0577 22.21 44.98C22.8223 45.082 23.4473 44.894 23.9016 44.471C24.3559 44.048 24.5881 43.438 24.53 42.82L24.53 41.89C23.8146 42.77 22.7227 43.2566 21.59 43.2C18.7623 43.2 16.47 40.9077 16.47 38.08C16.47 35.2523 18.7623 32.96 21.59 32.96C22.7218 32.9083 23.8116 33.3939 24.53 34.27L24.53 33.27L27.48 33.24ZM23.0951 35.7557C24.0029 36.1651 24.5708 37.085 24.53 38.08C24.5485 38.7238 24.2939 39.3454 23.829 39.7912C23.3642 40.2371 22.7324 40.4655 22.09 40.42C21.0942 40.4192 20.1988 39.8133 19.8277 38.8892C19.4567 37.9651 19.6844 36.9082 20.4031 36.2189C21.1219 35.5297 22.1873 35.3463 23.0951 35.7557Z" fill="rgb(105.128,104.434,113.187)" fill-rule="evenodd" />
		<path id="Shape" d="M29.21 38.28C29.206 36.1193 30.5045 34.1691 32.4995 33.3394C34.4946 32.5097 36.7931 32.9641 38.3224 34.4905C39.8517 36.017 40.3104 38.3146 39.4845 40.3112C38.6585 42.3079 36.7108 43.61 34.55 43.61C33.1306 43.6262 31.7644 43.0702 30.7598 42.0674C29.7551 41.0646 29.1965 39.6995 29.21 38.28ZM34.5111 36.0204C35.7843 35.9986 36.8371 37.0071 36.87 38.28L36.85 38.28C36.8835 38.9069 36.6546 39.5195 36.2184 39.971C35.7821 40.4224 35.1777 40.672 34.55 40.66C33.2766 40.6596 32.2416 39.6329 32.2309 38.3595C32.2202 37.0862 33.2378 36.0422 34.5111 36.0204Z" fill="rgb(105.128,104.434,113.187)" fill-rule="evenodd" />
		<path id="Shape" d="M43.1 28.72C42.0949 28.72 41.28 29.5348 41.28 30.54C41.2855 31.5429 42.0971 32.3545 43.1 32.36C44.1052 32.36 44.92 31.5451 44.92 30.54C44.92 29.5348 44.1052 28.72 43.1 28.72ZM44.59 33.24L41.59 33.24L41.59 43.32L44.59 43.32L44.59 33.24Z" fill="rgb(105.128,104.434,113.187)" fill-rule="evenodd" />
		<path id="Shape" d="M57.67 38.28C57.7435 39.6258 57.277 40.9452 56.374 41.9458C55.4711 42.9464 54.2062 43.5454 52.86 43.61C51.7272 43.6644 50.6286 43.2139 49.86 42.38L49.86 47.38L46.86 47.38L46.86 33.24L49.86 33.24L49.86 34.19C50.6286 33.356 51.7272 32.9056 52.86 32.96C54.2044 33.0246 55.4676 33.6222 56.3703 34.6206C57.273 35.619 57.7407 36.9359 57.67 38.28ZM52.2505 35.9408C53.5601 35.9298 54.6368 36.9707 54.67 38.28L54.65 38.28C54.6975 38.9423 54.4565 39.5929 53.9889 40.0643C53.5212 40.5358 52.8727 40.7821 52.21 40.74C50.9007 40.7068 49.8598 39.6301 49.8708 38.3205C49.8819 37.0108 50.9409 35.9519 52.2505 35.9408Z" fill="rgb(105.128,104.434,113.187)" fill-rule="evenodd" />
		<path id="Path" d="M67.01 40.3C67.01 42.62 65.01 43.61 62.81 43.61C61.012 43.7692 59.2979 42.8191 58.48 41.21L61.1 39.72C61.3191 40.4695 62.031 40.9649 62.81 40.91C63.54 40.91 63.9 40.68 63.9 40.28C63.9 39.17 58.9 39.76 58.9 36.28C58.9 34.08 60.76 32.97 62.9 32.97C64.5081 32.9211 66.0163 33.748 66.84 35.13L64.21 36.51C63.9726 35.9704 63.4395 35.6215 62.85 35.62C62.33 35.62 62.01 35.82 62.01 36.19C62.05 37.34 67.01 36.57 67.01 40.3Z" fill="rgb(105.128,104.434,113.187)" fill-rule="nonzero" />
		<path id="Path" d="M78.05 33.24L78.05 43.32L75.05 43.32L75.05 42.38C74.3421 43.2272 73.2715 43.6844 72.17 43.61C70.17 43.61 68.4 42.16 68.4 39.43L68.4 33.24L71.4 33.24L71.4 38.99C71.3466 39.4862 71.5193 39.9802 71.8703 40.335C72.2212 40.6899 72.7132 40.868 73.21 40.82C74.31 40.82 75.08 40.18 75.08 38.75L75.08 33.24L78.05 33.24Z" fill="rgb(105.128,104.434,113.187)" fill-rule="nonzero" />
		<path id="Path" d="M95.39 37.14L95.39 43.32L92.39 43.32L92.39 37.4C92.39 36.4 91.9 35.74 90.94 35.74C89.98 35.74 89.36 36.45 89.36 37.64L89.36 43.32L86.36 43.32L86.36 37.4C86.36 36.4 85.88 35.74 84.91 35.74C83.94 35.74 83.34 36.45 83.34 37.64L83.34 43.32L80.34 43.32L80.34 33.24L83.34 33.24L83.34 34.17C83.977 33.3355 84.9931 32.8801 86.04 32.96C87.0925 32.9089 88.0946 33.4138 88.68 34.29C89.3602 33.3745 90.4628 32.8723 91.6 32.96C93.88 32.96 95.39 34.62 95.39 37.14Z" fill="rgb(105.128,104.434,113.187)" fill-rule="nonzero" />
		<path id="Oval" d="M97.95 33.18C99.1871 33.18 100.19 32.1771 100.19 30.94C100.19 29.7029 99.1871 28.7 97.95 28.7C96.7129 28.7 95.71 29.7029 95.71 30.94C95.71 32.1771 96.7129 33.18 97.95 33.18Z" fill="rgb(105.128,104.434,113.187)" fill-rule="nonzero" />
		<path id="Oval" d="M33.95 20.98C39.7435 20.98 44.44 16.2835 44.44 10.49C44.44 4.69653 39.7435 0 33.95 0C28.1566 0 23.46 4.69653 23.46 10.49C23.46 16.2835 28.1566 20.98 33.95 20.98Z" fill="rgb(105.128,104.434,113.187)" fill-rule="nonzero" />
		<path id="Oval" d="M57.4 20.98C63.1934 20.98 67.89 16.2835 67.89 10.49C67.89 4.69653 63.1934 0 57.4 0C51.6065 0 46.91 4.69653 46.91 10.49C46.91 16.2835 51.6065 20.98 57.4 20.98Z" fill="rgb(105.128,104.434,113.187)" fill-rule="nonzero" />
		<rect id="Rectangle" width="20.969999" height="20.969999" x="0.020020" y="0.000000" fill="rgb(105.128,104.434,113.187)" />
	</g>
</svg>
