<svg viewBox="0 0 126.719 29.5409" xmlns="http://www.w3.org/2000/svg" xmlns:xlink="http://www.w3.org/1999/xlink" width="126.718689" height="29.540894" fill="none">
	<g id="Group">
		<path id="Shape" d="M35.99 9.03085L39.2 9.03085L39.2 22.0308L35.99 22.0308L35.99 9.03085ZM40.48 17.1408C40.48 13.9208 42.48 11.9908 45.48 11.9908C48.48 11.9908 50.48 13.9208 50.48 17.1408C50.48 20.3608 48.55 22.3108 45.48 22.3108C42.41 22.3108 40.48 20.4308 40.48 17.1408ZM45.51 14.3308C46.61 14.3308 47.3 15.3708 47.3 17.1408L47.32 17.1508C47.32 18.9508 46.61 19.9408 45.51 19.9408C44.41 19.9408 43.73 18.9508 43.73 17.1408C43.73 15.3308 44.41 14.3308 45.51 14.3308ZM51.76 22.7008L54.86 22.7008C55.15 23.3867 55.8613 23.7955 56.6 23.7008C57.83 23.7008 58.47 23.0408 58.47 22.0608L58.47 20.2818C57.9232 21.4166 56.7378 22.103 55.48 22.0108C53.13 22.0108 51.57 20.2208 51.57 17.1408C51.57 14.0608 53.06 12.1408 55.57 12.1408C56.7969 12.0752 57.937 12.7466 58.48 13.8336L58.48 12.2208L61.66 12.2208L61.66 21.9608C61.66 24.3108 59.58 25.7808 56.52 25.7808C53.74 25.7708 51.96 24.5008 51.78 22.7108L51.76 22.7008ZM58.48 17.1408C58.48 18.7708 57.77 19.6208 56.62 19.6208C55.47 19.6208 54.78 18.7008 54.78 17.1408C54.78 15.5808 55.48 14.5808 56.62 14.5808C57.76 14.5808 58.48 15.5708 58.48 17.1408ZM62.93 17.1408C62.93 13.9208 64.93 11.9908 67.93 11.9908C70.93 11.9908 72.93 13.9208 72.93 17.1408C72.93 20.3608 70.99 22.3108 67.93 22.3108C64.87 22.3108 62.95 20.4308 62.95 17.1408L62.93 17.1408ZM67.96 14.3308C69.05 14.3308 69.75 15.3708 69.75 17.1408L69.77 17.1508C69.77 18.9508 69.06 19.9408 67.96 19.9408C66.86 19.9408 66.18 18.9508 66.18 17.1408C66.18 15.3308 66.87 14.3308 67.96 14.3308ZM74.23 9.85085C74.229 9.82732 74.2285 9.80386 74.2285 9.78047C74.2285 9.13878 74.6038 8.55304 75.1924 8.28671C75.8024 8.01067 76.5189 8.13317 77.0026 8.59619C77.3322 8.91174 77.5085 9.34227 77.5085 9.78121C77.5085 9.98633 77.47 10.1933 77.3907 10.3912C77.1415 11.0127 76.5396 11.4202 75.87 11.4208C75.4475 11.4316 75.0383 11.2726 74.7339 10.9795C74.4295 10.6863 74.2552 10.2834 74.25 9.86085L74.23 9.85085ZM74.23 12.2108L77.48 12.2108L77.48 22.0708L74.28 22.0708L74.23 12.2108ZM89.17 17.1408C89.17 20.3508 87.73 22.2108 85.28 22.2108C83.9952 22.2901 82.7975 21.5595 82.28 20.3808L82.22 20.3808L82.22 25.2408L79.01 25.2408L79.01 12.2408L82.2 12.2408L82.2 14.0008L82.26 14.0008C82.7599 12.7988 83.9596 12.039 85.26 12.1008C87.78 12.0808 89.23 13.9308 89.23 17.1508L89.17 17.1408ZM84.04 14.5708C85.17 14.5708 85.9 15.5808 85.9 17.1408L85.96 17.1508C85.96 18.7708 85.17 19.7008 84.04 19.7008C82.9176 19.7008 82.1899 18.7242 82.1899 17.1726C82.1899 17.1621 82.1899 17.1515 82.19 17.1408C82.2 15.5708 82.91 14.5708 84.04 14.5708ZM94.65 11.9808C97.34 11.9808 99.01 13.2508 99.03 15.2908L96.1 15.2908C96.1 14.5808 95.51 14.1408 94.63 14.1408C93.75 14.1408 93.33 14.4808 93.33 14.9908C93.33 15.5008 93.7 15.6608 94.44 15.8108L96.5 16.2308C98.5 16.6508 99.3 17.4508 99.3 18.9408C99.3 20.9408 97.45 22.3008 94.7 22.3008C91.95 22.3008 90.16 20.9808 90.03 18.9708L93.14 18.9708C93.23 19.7008 93.81 20.1308 94.75 20.1308C95.69 20.1308 96.13 19.8308 96.13 19.3008C96.13 18.7708 95.83 18.6808 95.06 18.5208L93.2 18.1308C91.27 17.7208 90.26 16.7108 90.26 15.2008C90.32 13.2408 92 11.9908 94.71 11.9908L94.65 11.9808ZM110.05 22.0608L106.94 22.0608L106.94 20.2108L106.88 20.2108C106.521 21.4819 105.329 22.3339 104.01 22.2608C103.032 22.2927 102.088 21.9056 101.413 21.197C100.804 20.5569 100.468 19.7093 100.468 18.8329C100.468 18.7391 100.472 18.645 100.48 18.5508L100.48 12.2208L103.69 12.2208L103.69 17.8608C103.69 19.0208 104.3 19.6508 105.3 19.6508C105.775 19.6473 106.225 19.4382 106.533 19.0776C106.789 18.7785 106.928 18.3995 106.928 18.0109C106.928 17.9311 106.922 17.8509 106.91 17.7708L106.91 12.2208L110.11 12.2208L110.05 22.0608ZM111.6 12.2108L114.72 12.2108L114.72 14.1108L114.79 14.1108C115.145 12.8591 116.299 12.0043 117.6 12.0308C118.916 11.9165 120.102 12.8217 120.34 14.1208L120.48 14.1208C120.891 12.8249 122.122 11.9673 123.48 12.0308C124.368 11.9971 125.228 12.3434 125.845 12.983C126.407 13.5666 126.719 14.3438 126.719 15.1484C126.719 15.2257 126.716 15.3032 126.71 15.3808L126.71 22.0708L123.48 22.0708L123.48 16.2008C123.48 15.2008 123.01 14.6408 122.1 14.6408C121.692 14.6341 121.301 14.8062 121.03 15.1118C120.801 15.3695 120.677 15.7005 120.677 16.0406C120.677 16.1039 120.681 16.1674 120.69 16.2308L120.69 22.0708L117.63 22.0708L117.63 16.1708C117.63 15.1708 117.14 14.6408 116.26 14.6408C115.847 14.6376 115.453 14.8127 115.179 15.1212C114.946 15.3844 114.819 15.7228 114.819 16.0707C114.819 16.1306 114.822 16.1908 114.83 16.2508L114.83 22.0708L111.62 22.0708L111.6 12.2108Z" fill="rgb(105.128,104.434,113.187)" fill-rule="evenodd" />
		<path id="Shape" d="M23.3441 0.673391C27.1402 2.15113 29.6402 5.80726 29.64 9.88087C29.6381 12.6872 28.4417 15.36 26.35 17.2309L26.35 29.5409L0 29.5409L0 3.20087L12.48 3.20087C15.234 0.199264 19.548 -0.804353 23.3441 0.673391ZM24.57 9.88087C24.574 11.8313 23.4023 13.5919 21.6015 14.3411C19.8007 15.0903 17.7259 14.6804 16.3453 13.3027C14.9647 11.9249 14.5505 9.85099 15.296 8.04865C16.0414 6.24631 17.7996 5.07087 19.75 5.07087C22.4081 5.07086 24.5645 7.22276 24.57 9.88087ZM5.07 24.4709L21.28 24.4709L21.28 19.6409C20.7743 19.7247 20.2626 19.7682 19.75 19.7709C14.2902 19.7654 9.86551 15.3407 9.86 9.88087C9.8644 9.34093 9.91458 8.80233 10.01 8.27087L5.07 8.27087L5.07 24.4709Z" fill="rgb(105.128,104.434,113.187)" fill-rule="evenodd" />
	</g>
</svg>
